<?xml version="1.0" encoding="utf-8"?>
<!-- Generator: Adobe Illustrator 16.0.0, SVG Export Plug-In . SVG Version: 6.00 Build 0)  -->
<!DOCTYPE svg PUBLIC "-//W3C//DTD SVG 1.1//EN" "http://www.w3.org/Graphics/SVG/1.1/DTD/svg11.dtd">
<svg version="1.1" id="Layer_1" xmlns="http://www.w3.org/2000/svg" xmlns:xlink="http://www.w3.org/1999/xlink" x="0px" y="0px"
	 width="108.291px" height="108.127px" viewBox="0 0 108.291 108.127" enable-background="new 0 0 108.291 108.127"
	 xml:space="preserve">
<polygon fill="#FFFFFF" points="21.438,44.168 18.938,52.258 10.847,54.757 18.938,57.324 21.438,65.415 24.003,57.324 
	32.094,54.757 24.003,52.258 "/>
<path fill="#FFFFFF" d="M21.372,53.114c0.535-0.039,1.092,0.202,1.447,0.658c0.569,0.727,0.399,1.733-0.329,2.303
	c-0.727,0.568-1.798,0.463-2.368-0.264c-0.568-0.726-0.398-1.798,0.329-2.367C20.724,53.229,21.051,53.137,21.372,53.114z"/>
<path fill="#FFFFFF" d="M56.744,12.937c0.966-0.065,2.006,0.349,2.649,1.171c1.029,1.314,0.769,3.178-0.546,4.207
	c-1.314,1.029-3.257,0.771-4.286-0.546c-1.028-1.314-0.768-3.178,0.546-4.207C55.599,13.176,56.162,12.978,56.744,12.937z"/>
<path fill="#FFFFFF" d="M86.448,70.738l-4.598-14.652l-4.599,14.652l-14.651,4.441l14.651,4.677l4.599,14.652l4.598-14.652
	l14.653-4.677L86.448,70.738z M83.721,77.674c-1.314,1.028-3.257,0.771-4.286-0.547c-1.028-1.314-0.768-3.179,0.546-4.207
	c0.493-0.387,1.057-0.584,1.638-0.625c0.966-0.065,2.006,0.349,2.649,1.171C85.296,74.781,85.036,76.645,83.721,77.674z"/>
</svg>
